<?xml version="1.0" encoding="iso-8859-1"?>
<!-- Generator: Adobe Illustrator 16.0.0, SVG Export Plug-In . SVG Version: 6.00 Build 0)  -->
<!DOCTYPE svg PUBLIC "-//W3C//DTD SVG 1.1//EN" "http://www.w3.org/Graphics/SVG/1.1/DTD/svg11.dtd">
<svg version="1.1" id="Capa_1" xmlns="http://www.w3.org/2000/svg" xmlns:xlink="http://www.w3.org/1999/xlink" x="0px" y="0px"
	 width="46.342px" height="46.341px" viewBox="0 0 46.342 46.341" style="enable-background:new 0 0 46.342 46.341;"
	 xml:space="preserve">
<g>
	<g>
		<path d="M8.948,16.185c0.211-1.594,1.028-3.01,2.303-3.987c1.061-0.813,2.326-1.244,3.662-1.244c1.887,0,3.627,0.858,4.775,2.354
			l2.144,2.795c0.873-0.495,1.852-0.755,2.87-0.77c1.421-2.808,0.962-6.324-1.385-8.668c-2.915-2.916-7.638-2.921-10.563-0.021
			C9.831,3.744,5.109,3.748,2.19,6.665c-2.921,2.92-2.921,7.661,0,10.584c0.144,0.141,7.079,7.046,9.633,9.589
			c0.516,0.513,1.348,0.513,1.863,0c0.201-0.2,0.438-0.437,0.688-0.687l-4.234-5.518C9.163,19.359,8.739,17.779,8.948,16.185z"/>
		<path d="M45.719,28.096L37.851,17.84c-0.595-0.774-1.49-1.181-2.396-1.181c-0.642,0-1.287,0.203-1.836,0.624
			c-0.367,0.282-0.652,0.632-0.85,1.02c-0.594-0.704-1.446-1.072-2.309-1.072c-0.642,0-1.287,0.203-1.834,0.624
			c-0.67,0.514-1.064,1.254-1.16,2.03l-0.289-0.377c-0.594-0.774-1.488-1.181-2.395-1.181c-0.641,0-1.286,0.203-1.833,0.623
			c-0.67,0.515-1.066,1.256-1.158,2.029l-4.486-5.847c-0.594-0.773-1.489-1.18-2.395-1.18c-0.642,0-1.287,0.203-1.836,0.624
			c-1.321,1.014-1.57,2.909-0.557,4.229l11.24,14.652l-2.082-0.593c-0.275-0.077-0.554-0.115-0.826-0.115
			c-1.313,0-2.521,0.863-2.899,2.192c-0.456,1.603,0.474,3.271,2.077,3.727l10.849,3.086c0.272,0.077,0.551,0.115,0.823,0.115
			c0.646,0,1.272-0.208,1.791-0.59l11.67-8.955C46.483,31.311,46.733,29.417,45.719,28.096z"/>
	</g>
</g>
<g>
</g>
<g>
</g>
<g>
</g>
<g>
</g>
<g>
</g>
<g>
</g>
<g>
</g>
<g>
</g>
<g>
</g>
<g>
</g>
<g>
</g>
<g>
</g>
<g>
</g>
<g>
</g>
<g>
</g>
</svg>
